<svg xmlns="http://www.w3.org/2000/svg" width="65.78" height="66" viewBox="0 0 65.78 66">
  <defs>
    <style>
      .cls-1 {
        fill: #fff;
        fill-rule: evenodd;
        opacity: 0.75;
      }
    </style>
  </defs>
  <path id="Arrow_Right" data-name="Arrow Right" class="cls-1" d="M1537.12,560A33,33,0,1,1,1570,527,32.942,32.942,0,0,1,1537.12,560Zm0-62.041A29.041,29.041,0,1,0,1566.05,527,28.986,28.986,0,0,0,1537.12,497.96Zm11.22,30.554-13.93,13.7a2.263,2.263,0,0,1-3.16-.079,2.176,2.176,0,0,1-.08-3.106L1543.4,527l-12.23-12.028a2.177,2.177,0,0,1,.08-3.106,2.264,2.264,0,0,1,3.16-.08l13.93,13.7a2.071,2.071,0,0,1,.61,1.425v0.177A2.067,2.067,0,0,1,1548.34,528.514Z" transform="translate(-1504.22 -494)"/>
</svg>
