<svg xmlns="http://www.w3.org/2000/svg" width="65.781" height="66" viewBox="0 0 65.781 66">
  <defs>
    <style>
      .cls-1 {
        fill: #fff;
        fill-rule: evenodd;
        opacity: 0.75;
      }
    </style>
  </defs>
  <path id="Arrow_Left" data-name="Arrow Left" class="cls-1" d="M63.885,560A33,33,0,1,0,31,527,32.943,32.943,0,0,0,63.885,560Zm0-62.041A29.041,29.041,0,1,1,34.946,527,28.99,28.99,0,0,1,63.885,497.96ZM52.658,528.514l13.931,13.7a2.261,2.261,0,0,0,3.159-.079,2.173,2.173,0,0,0,.081-3.106L57.6,527,69.83,514.973a2.173,2.173,0,0,0-.081-3.106,2.262,2.262,0,0,0-3.159-.08l-13.931,13.7a2.051,2.051,0,0,0-.606,1.425c0,0.031-.006.059-0.006,0.089s0,0.058.006,0.088A2.047,2.047,0,0,0,52.658,528.514Z" transform="translate(-31 -494)"/>
</svg>
