<svg xmlns="http://www.w3.org/2000/svg" xmlns:xlink="http://www.w3.org/1999/xlink" width="19px" height="17px" viewBox="0 0 19 17" version="1.1">
<g>
<path fill="#444" d="M 13.195312 8.5 C 13.195312 10.554688 11.542969 12.21875 9.5 12.21875 C 7.457031 12.21875 5.804688 10.554688 5.804688 8.5 C 5.804688 6.445312 7.457031 4.78125 9.5 4.78125 C 11.542969 4.78125 13.195312 6.445312 13.195312 8.5 Z M 8.972656 7.4375 L 8.972656 9.5625 L 8.707031 9.5625 C 8.417969 9.5625 8.179688 9.800781 8.179688 10.09375 C 8.179688 10.386719 8.417969 10.625 8.707031 10.625 L 10.292969 10.625 C 10.582031 10.625 10.820312 10.386719 10.820312 10.09375 C 10.820312 9.800781 10.582031 9.5625 10.292969 9.5625 L 10.027344 9.5625 L 10.027344 6.90625 C 10.027344 6.613281 9.789062 6.375 9.5 6.375 L 8.972656 6.375 C 8.683594 6.375 8.445312 6.613281 8.445312 6.90625 C 8.445312 7.199219 8.683594 7.4375 8.972656 7.4375 Z M 0 4.25 C 0 3.078125 0.945312 2.125 2.109375 2.125 L 16.890625 2.125 C 18.054688 2.125 19 3.078125 19 4.25 L 19 12.75 C 19 13.921875 18.054688 14.875 16.890625 14.875 L 2.109375 14.875 C 0.945312 14.875 0 13.921875 0 12.75 Z M 1.582031 5.84375 L 1.582031 11.15625 C 2.75 11.15625 3.695312 12.109375 3.695312 13.28125 L 15.304688 13.28125 C 15.304688 12.109375 16.253906 11.15625 17.417969 11.15625 L 17.417969 5.84375 C 16.253906 5.84375 15.304688 4.890625 15.304688 3.71875 L 3.695312 3.71875 C 3.695312 4.890625 2.75 5.84375 1.582031 5.84375 Z M 1.582031 5.84375 "/>
</g>
</svg>
