<svg xmlns="http://www.w3.org/2000/svg" xmlns:xlink="http://www.w3.org/1999/xlink" width="19px" height="17px" viewBox="0 0 19 17" version="1.1">
<g>
<path fill="#fff" d="M 0.792969 0 C 0.351562 0 0 0.355469 0 0.796875 C 0 1.238281 0.351562 1.59375 0.792969 1.59375 L 2.511719 1.59375 L 4.5 12.101562 C 4.570312 12.476562 4.898438 12.75 5.277344 12.75 L 16.097656 12.75 C 16.535156 12.75 16.890625 12.394531 16.890625 11.953125 C 16.890625 11.511719 16.535156 11.15625 16.097656 11.15625 L 5.933594 11.15625 L 5.632812 9.5625 L 16.089844 9.5625 C 16.5625 9.5625 16.976562 9.246094 17.105469 8.789062 L 18.886719 2.414062 C 19.074219 1.738281 18.570312 1.0625 17.871094 1.0625 L 4.023438 1.0625 L 3.945312 0.648438 C 3.871094 0.273438 3.546875 0 3.167969 0 Z M 5.804688 17 C 6.679688 17 7.390625 16.285156 7.390625 15.40625 C 7.390625 14.527344 6.679688 13.8125 5.804688 13.8125 C 4.929688 13.8125 4.222656 14.527344 4.222656 15.40625 C 4.222656 16.285156 4.929688 17 5.804688 17 Z M 16.890625 15.40625 C 16.890625 14.527344 16.179688 13.8125 15.304688 13.8125 C 14.429688 13.8125 13.722656 14.527344 13.722656 15.40625 C 13.722656 16.285156 14.429688 17 15.304688 17 C 16.179688 17 16.890625 16.285156 16.890625 15.40625 Z M 16.890625 15.40625 "/>
</g>
</svg>
