<svg xmlns="http://www.w3.org/2000/svg" xmlns:xlink="http://www.w3.org/1999/xlink" width="18px" height="18px" viewBox="0 0 18 18" version="1.1">
<g>
<path fill="#444" d="M 8.15625 4.21875 C 8.15625 3.75 8.53125 3.375 9 3.375 C 9.46875 3.375 9.84375 3.75 9.84375 4.21875 L 9.84375 8.550781 L 12.84375 10.546875 C 13.230469 10.808594 13.335938 11.332031 13.046875 11.71875 C 12.816406 12.105469 12.292969 12.210938 11.90625 11.921875 L 8.53125 9.671875 C 8.296875 9.546875 8.15625 9.28125 8.15625 8.96875 Z M 9 0 C 13.972656 0 18 4.027344 18 9 C 18 13.972656 13.972656 18 9 18 C 4.027344 18 0 13.972656 0 9 C 0 4.027344 4.027344 0 9 0 Z M 1.6875 9 C 1.6875 13.039062 4.960938 16.3125 9 16.3125 C 13.039062 16.3125 16.3125 13.039062 16.3125 9 C 16.3125 4.960938 13.039062 1.6875 9 1.6875 C 4.960938 1.6875 1.6875 4.960938 1.6875 9 Z M 1.6875 9 "/>
</g>
</svg>
