<svg xmlns="http://www.w3.org/2000/svg" xmlns:xlink="http://www.w3.org/1999/xlink" width="18px" height="18px" viewBox="0 0 18 18" version="1.1">
<g>
<path fill="#fff" d="M 14.625 7.3125 C 14.625 8.925781 14.101562 10.417969 13.21875 11.625 L 17.667969 16.082031 C 18.109375 16.519531 18.109375 17.234375 17.667969 17.671875 C 17.230469 18.113281 16.515625 18.113281 16.078125 17.671875 L 11.625 13.21875 C 10.417969 14.105469 8.925781 14.625 7.3125 14.625 C 3.273438 14.625 0 11.351562 0 7.3125 C 0 3.273438 3.273438 0 7.3125 0 C 11.351562 0 14.625 3.273438 14.625 7.3125 Z M 7.3125 12.375 C 10.109375 12.375 12.375 10.109375 12.375 7.3125 C 12.375 4.515625 10.109375 2.25 7.3125 2.25 C 4.515625 2.25 2.25 4.515625 2.25 7.3125 C 2.25 10.109375 4.515625 12.375 7.3125 12.375 Z M 7.3125 12.375 "/>
</g>
</svg>
