<svg xmlns="http://www.w3.org/2000/svg" xmlns:xlink="http://www.w3.org/1999/xlink" width="17px" height="15px" viewBox="0 0 16 15" version="1.1">
<g>
<path style=" stroke:none;fill-rule:nonzero;fill:rgb(0%,0%,0%);fill-opacity:1;" d="M 15.269531 3.636719 C 15.09375 2.941406 14.578125 2.398438 13.925781 2.210938 C 12.742188 1.875 8 1.875 8 1.875 C 8 1.875 3.257812 1.875 2.074219 2.210938 C 1.421875 2.398438 0.90625 2.941406 0.730469 3.636719 C 0.414062 4.890625 0.414062 7.511719 0.414062 7.511719 C 0.414062 7.511719 0.414062 10.132812 0.730469 11.386719 C 0.90625 12.082031 1.421875 12.601562 2.074219 12.789062 C 3.257812 13.125 8 13.125 8 13.125 C 8 13.125 12.742188 13.125 13.925781 12.789062 C 14.578125 12.601562 15.09375 12.082031 15.269531 11.386719 C 15.585938 10.132812 15.585938 7.511719 15.585938 7.511719 C 15.585938 7.511719 15.585938 4.890625 15.269531 3.636719 Z M 6.449219 9.890625 L 6.449219 5.132812 L 10.414062 7.511719 Z M 6.449219 9.890625 "/>
</g>
</svg>
